<svg xmlns="http://www.w3.org/2000/svg" xmlns:xlink="http://www.w3.org/1999/xlink" contentStyleType="text/css" data-diagram-type="ACTIVITY" height="925.6px" preserveAspectRatio="none" style="width:418px;height:925px;background:#FFFFFF;" version="1.1" viewBox="0 0 418 925" width="418px" zoomAndPan="magnify"><defs/><g><rect fill="none" height="9.5766" style="stroke:none;stroke-width:0.4;" width="405.1334" x="6" y="5.207"/><rect fill="#ADD8E6" height="915.5934" style="stroke:#ADD8E6;stroke-width:0.4;" width="129.7332" x="6" y="5.207"/><ellipse cx="89.2" cy="20.7836" fill="#222222" rx="4" ry="4" style="stroke:#222222;stroke-width:0.4;"/><rect fill="#F1F1F1" height="14.3844" rx="5" ry="5" style="stroke:#181818;stroke-width:0.2;" width="27.2" x="75.6" y="32.7836"/><text fill="#000000" font-family="sans-serif" font-size="4.8" lengthAdjust="spacing" textLength="19.2" x="79.6" y="41.9633">&#28216;&#25103;&#24320;&#22987;</text><rect fill="#F1F1F1" height="14.3844" rx="5" ry="5" style="stroke:#181818;stroke-width:0.2;" width="36.8" x="70.8" y="55.168"/><text fill="#000000" font-family="sans-serif" font-size="4.8" lengthAdjust="spacing" textLength="28.8" x="74.8" y="64.3477">&#26597;&#30475;&#39135;&#26448;&#21345;&#29260;</text><rect fill="#F1F1F1" height="14.3844" rx="5" ry="5" style="stroke:#181818;stroke-width:0.2;" width="46.4" x="66" y="167.6535"/><text fill="#000000" font-family="sans-serif" font-size="4.8" lengthAdjust="spacing" textLength="38.4" x="70" y="176.8332">&#35266;&#23519;&#21345;&#29260;&#21047;&#26032;&#29366;&#24577;</text><rect fill="#F1F1F1" height="14.3844" rx="5" ry="5" style="stroke:#181818;stroke-width:0.2;" width="46.4" x="66" y="190.0379"/><text fill="#000000" font-family="sans-serif" font-size="4.8" lengthAdjust="spacing" textLength="38.4" x="70" y="199.2176">&#25302;&#25341;&#35843;&#25972;&#21345;&#29260;&#20301;&#32622;</text><rect fill="#F1F1F1" height="14.3844" rx="5" ry="5" style="stroke:#181818;stroke-width:0.2;" width="66.6664" x="55.8668" y="212.4223"/><text fill="#000000" font-family="sans-serif" font-size="4.8" lengthAdjust="spacing" textLength="58.6664" x="59.8668" y="221.602">&#36873;&#25321;&#39135;&#26448;&#21345;&#29260;&#32452;&#21512;(&#26368;&#22810;5&#24352;)</text><polygon fill="#F1F1F1" points="79.1765,377.9285,99.2235,377.9285,104.0235,382.7285,99.2235,387.5285,79.1765,387.5285,74.3765,382.7285,79.1765,377.9285" style="stroke:#181818;stroke-width:0.2;"/><text fill="#000000" font-family="sans-serif" font-size="4.4" lengthAdjust="spacing" textLength="20.0471" x="79.1765" y="384.5504">&#36873;&#25321;&#25552;&#20132;?</text><text fill="#000000" font-family="sans-serif" font-size="4.4" lengthAdjust="spacing" textLength="13.2" x="61.1765" y="381.6242">&#19981;&#25552;&#20132;</text><text fill="#000000" font-family="sans-serif" font-size="4.4" lengthAdjust="spacing" textLength="8.8" x="104.0235" y="381.6242">&#25552;&#20132;</text><polygon fill="#F1F1F1" points="42.7765,395.5285,62.8235,395.5285,67.6235,400.3285,62.8235,405.1285,42.7765,405.1285,37.9765,400.3285,42.7765,395.5285" style="stroke:#181818;stroke-width:0.2;"/><text fill="#000000" font-family="sans-serif" font-size="4.4" lengthAdjust="spacing" textLength="8.8" x="54.4" y="409.8766">&#24323;&#29260;</text><text fill="#000000" font-family="sans-serif" font-size="4.4" lengthAdjust="spacing" textLength="20.0471" x="42.7765" y="402.1504">&#36873;&#25321;&#24323;&#29260;?</text><text fill="#000000" font-family="sans-serif" font-size="4.4" lengthAdjust="spacing" textLength="13.2" x="24.7765" y="399.2242">&#19981;&#24323;&#29260;</text><polygon fill="#F1F1F1" points="52.8,496.534,57.6,501.334,52.8,506.134,48,501.334,52.8,496.534" style="stroke:#181818;stroke-width:0.2;"/><polygon fill="#F1F1F1" points="89.2,616.9879,94,621.7879,89.2,626.5879,84.4,621.7879,89.2,616.9879" style="stroke:#181818;stroke-width:0.2;"/><polygon fill="#F1F1F1" points="76.9765,144.7055,101.4235,144.7055,106.2235,149.5055,101.4235,154.3055,76.9765,154.3055,72.1765,149.5055,76.9765,144.7055" style="stroke:#181818;stroke-width:0.2;"/><text fill="#000000" font-family="sans-serif" font-size="4.4" lengthAdjust="spacing" textLength="17.6" x="90.8" y="159.0535">&#21345;&#29260;&#25805;&#20316;</text><text fill="#000000" font-family="sans-serif" font-size="4.4" lengthAdjust="spacing" textLength="24.4471" x="76.9765" y="151.3273">&#28216;&#25103;&#36827;&#34892;&#20013;?</text><rect fill="#F1F1F1" height="14.3844" rx="5" ry="5" style="stroke:#181818;stroke-width:0.2;" width="36.8" x="70.8" y="688.1566"/><text fill="#000000" font-family="sans-serif" font-size="4.8" lengthAdjust="spacing" textLength="28.8" x="74.8" y="697.3363">&#36827;&#20837;&#21830;&#24215;&#30028;&#38754;</text><rect fill="#F1F1F1" height="14.3844" rx="5" ry="5" style="stroke:#181818;stroke-width:0.2;" width="36.8" x="70.8" y="755.3098"/><text fill="#000000" font-family="sans-serif" font-size="4.8" lengthAdjust="spacing" textLength="28.8" x="74.8" y="764.4895">&#27983;&#35272;&#21830;&#24215;&#21830;&#21697;</text><rect fill="#F1F1F1" height="14.3844" rx="5" ry="5" style="stroke:#181818;stroke-width:0.2;" width="41.6" x="68.4" y="777.6941"/><text fill="#000000" font-family="sans-serif" font-size="4.8" lengthAdjust="spacing" textLength="33.6" x="72.4" y="786.8738">&#36873;&#25321;&#36141;&#20080;&#28921;&#39274;&#21345;</text><rect fill="#F1F1F1" height="14.3844" rx="5" ry="5" style="stroke:#181818;stroke-width:0.2;" width="36.8" x="70.8" y="800.0785"/><text fill="#000000" font-family="sans-serif" font-size="4.8" lengthAdjust="spacing" textLength="28.8" x="74.8" y="809.2582">&#36873;&#25321;&#21345;&#29260;&#21319;&#32423;</text><rect fill="#F1F1F1" height="14.3844" rx="5" ry="5" style="stroke:#181818;stroke-width:0.2;" width="36.8" x="70.8" y="889.616"/><text fill="#000000" font-family="sans-serif" font-size="4.8" lengthAdjust="spacing" textLength="28.8" x="74.8" y="898.7957">&#24320;&#22987;&#19979;&#19968;&#20851;&#21345;</text><ellipse cx="89.2" cy="916.4004" fill="none" rx="4.4" ry="4.4" style="stroke:#222222;stroke-width:0.4;"/><ellipse cx="89.2" cy="916.4004" fill="#222222" rx="2.4" ry="2.4" style="stroke:#222222;stroke-width:0.4;"/><line style="stroke:#00008B;stroke-width:0.6;" x1="6" x2="6" y1="5.207" y2="920.8004"/><rect fill="#90EE90" height="915.5934" style="stroke:#90EE90;stroke-width:0.4;" width="132.8" x="135.7332" y="5.207"/><rect fill="#F1F1F1" height="14.3844" rx="5" ry="5" style="stroke:#181818;stroke-width:0.2;" width="41.6" x="181.7332" y="77.5523"/><text fill="#000000" font-family="sans-serif" font-size="4.8" lengthAdjust="spacing" textLength="33.6" x="185.7332" y="86.732">&#21021;&#22987;&#21270;&#39135;&#26448;&#21345;&#32452;</text><rect fill="#F1F1F1" height="14.3844" rx="5" ry="5" style="stroke:#181818;stroke-width:0.2;" width="41.6" x="181.7332" y="99.9367"/><text fill="#000000" font-family="sans-serif" font-size="4.8" lengthAdjust="spacing" textLength="33.6" x="185.7332" y="109.1164">&#21021;&#22987;&#21270;&#28921;&#39274;&#21345;&#32452;</text><rect fill="#F1F1F1" height="14.3844" rx="5" ry="5" style="stroke:#181818;stroke-width:0.2;" width="46.4" x="179.3332" y="122.3211"/><text fill="#000000" font-family="sans-serif" font-size="4.8" lengthAdjust="spacing" textLength="38.4" x="183.3332" y="131.5008">&#21551;&#21160;&#39135;&#26448;&#33258;&#21160;&#21047;&#26032;</text><polygon fill="#F1F1F1" points="188.1097,234.8066,216.9567,234.8066,221.7567,239.6066,216.9567,244.4066,188.1097,244.4066,183.3097,239.6066,188.1097,234.8066" style="stroke:#181818;stroke-width:0.2;"/><text fill="#000000" font-family="sans-serif" font-size="4.4" lengthAdjust="spacing" textLength="28.8471" x="188.1097" y="241.4285">&#21345;&#29260;&#36873;&#25321;&#29366;&#24577;?</text><text fill="#000000" font-family="sans-serif" font-size="4.4" lengthAdjust="spacing" textLength="17.6" x="165.7097" y="238.5023">&#26080;&#25928;&#36873;&#25321;</text><text fill="#000000" font-family="sans-serif" font-size="4.4" lengthAdjust="spacing" textLength="17.6" x="221.7567" y="238.5023">&#26377;&#25928;&#36873;&#25321;</text><rect fill="#F1F1F1" height="14.3844" rx="5" ry="5" style="stroke:#181818;stroke-width:0.2;" width="36.8" x="158.1332" y="252.4066"/><text fill="#000000" font-family="sans-serif" font-size="4.8" lengthAdjust="spacing" textLength="28.8" x="162.1332" y="261.5863">&#25552;&#31034;&#36873;&#25321;&#38169;&#35823;</text><rect fill="#F1F1F1" height="14.3844" rx="5" ry="5" style="stroke:#181818;stroke-width:0.2;" width="46.4" x="205.3332" y="252.4066"/><text fill="#000000" font-family="sans-serif" font-size="4.8" lengthAdjust="spacing" textLength="38.4" x="209.3332" y="261.5863">&#39564;&#35777;&#21345;&#29260;&#32452;&#21512;&#31867;&#22411;</text><rect fill="#F1F1F1" height="14.3844" rx="5" ry="5" style="stroke:#181818;stroke-width:0.2;" width="51.2" x="202.9332" y="274.791"/><text fill="#000000" font-family="sans-serif" font-size="4.8" lengthAdjust="spacing" textLength="43.2" x="206.9332" y="283.9707">&#24212;&#29992;&#28921;&#39274;&#21345;&#21152;&#25104;&#25928;&#26524;</text><rect fill="#F1F1F1" height="14.3844" rx="5" ry="5" style="stroke:#181818;stroke-width:0.2;" width="51.2" x="202.9332" y="297.1754"/><text fill="#000000" font-family="sans-serif" font-size="4.8" lengthAdjust="spacing" textLength="43.2" x="206.9332" y="306.3551">&#35745;&#31639;&#22522;&#30784;&#24471;&#20998;&#21644;&#20493;&#29575;</text><polygon fill="#F1F1F1" points="202.5332,360.3285,207.3332,365.1285,202.5332,369.9285,197.7332,365.1285,202.5332,360.3285" style="stroke:#181818;stroke-width:0.2;"/><rect fill="#F1F1F1" height="14.3844" rx="5" ry="5" style="stroke:#181818;stroke-width:0.2;" width="56" x="138.1332" y="415.2547"/><text fill="#000000" font-family="sans-serif" font-size="4.8" lengthAdjust="spacing" textLength="48" x="142.1332" y="424.4344">&#31227;&#21160;&#36873;&#20013;&#21345;&#29260;&#21040;&#24323;&#29260;&#21306;</text><rect fill="#F1F1F1" height="14.3844" rx="5" ry="5" style="stroke:#181818;stroke-width:0.2;" width="41.6" x="145.3332" y="443.6391"/><text fill="#000000" font-family="sans-serif" font-size="4.8" lengthAdjust="spacing" textLength="33.6" x="149.3332" y="452.8188">&#22238;&#25910;&#24323;&#32622;&#30340;&#21345;&#29260;</text><rect fill="#F1F1F1" height="14.3844" rx="5" ry="5" style="stroke:#181818;stroke-width:0.2;" width="46.4" x="142.9332" y="472.0234"/><text fill="#000000" font-family="sans-serif" font-size="4.8" lengthAdjust="spacing" textLength="38.4" x="146.9332" y="481.2031">&#21047;&#26032;&#26032;&#30340;&#39135;&#26448;&#21345;&#29260;</text><rect fill="#F1F1F1" height="14.3844" rx="5" ry="5" style="stroke:#181818;stroke-width:0.2;" width="56" x="210.9332" y="395.5285"/><text fill="#000000" font-family="sans-serif" font-size="4.8" lengthAdjust="spacing" textLength="48" x="214.9332" y="404.7082">&#31227;&#21160;&#36873;&#20013;&#21345;&#29260;&#21040;&#24471;&#20998;&#21306;</text><rect fill="#F1F1F1" height="14.3844" rx="5" ry="5" style="stroke:#181818;stroke-width:0.2;" width="46.4" x="215.7332" y="423.9129"/><text fill="#000000" font-family="sans-serif" font-size="4.8" lengthAdjust="spacing" textLength="38.4" x="219.7332" y="433.0926">&#35302;&#21457;&#24471;&#20998;&#35745;&#31639;&#27969;&#31243;</text><rect fill="#F1F1F1" height="14.3844" rx="5" ry="5" style="stroke:#181818;stroke-width:0.2;" width="46.4" x="215.7332" y="553.8348"/><text fill="#000000" font-family="sans-serif" font-size="4.8" lengthAdjust="spacing" textLength="38.4" x="219.7332" y="563.0145">&#22238;&#25910;&#20351;&#29992;&#36807;&#30340;&#21345;&#29260;</text><rect fill="#F1F1F1" height="14.3844" rx="5" ry="5" style="stroke:#181818;stroke-width:0.2;" width="46.4" x="215.7332" y="576.2191"/><text fill="#000000" font-family="sans-serif" font-size="4.8" lengthAdjust="spacing" textLength="38.4" x="219.7332" y="585.3988">&#21047;&#26032;&#26032;&#30340;&#39135;&#26448;&#21345;&#29260;</text><rect fill="#F1F1F1" height="14.3844" rx="5" ry="5" style="stroke:#181818;stroke-width:0.2;" width="46.4" x="215.7332" y="598.6035"/><text fill="#000000" font-family="sans-serif" font-size="4.8" lengthAdjust="spacing" textLength="38.4" x="219.7332" y="607.7832">&#26356;&#26032;&#21345;&#29260;&#26174;&#31034;&#29366;&#24577;</text><line style="stroke:#00008B;stroke-width:0.6;" x1="135.7332" x2="135.7332" y1="5.207" y2="920.8004"/><rect fill="#FFB6C1" height="915.5934" style="stroke:#FFB6C1;stroke-width:0.4;" width="86.8" x="268.5332" y="5.207"/><rect fill="#F1F1F1" height="14.3844" rx="5" ry="5" style="stroke:#181818;stroke-width:0.2;" width="41.6" x="299.3332" y="319.5598"/><text fill="#000000" font-family="sans-serif" font-size="4.8" lengthAdjust="spacing" textLength="33.6" x="303.3332" y="328.7395">&#26174;&#31034;&#39044;&#35745;&#31639;&#24471;&#20998;</text><rect fill="#F1F1F1" height="14.3844" rx="5" ry="5" style="stroke:#181818;stroke-width:0.2;" width="46.4" x="296.9332" y="341.9441"/><text fill="#000000" font-family="sans-serif" font-size="4.8" lengthAdjust="spacing" textLength="38.4" x="300.9332" y="351.1238">&#26356;&#26032;&#24471;&#20998;&#30028;&#38754;&#26174;&#31034;</text><rect fill="#F1F1F1" height="14.3844" rx="5" ry="5" style="stroke:#181818;stroke-width:0.2;" width="46.4" x="307.3332" y="452.2973"/><text fill="#000000" font-family="sans-serif" font-size="4.8" lengthAdjust="spacing" textLength="38.4" x="311.3332" y="461.477">&#25191;&#34892;&#24471;&#20998;&#21160;&#30011;&#24207;&#21015;</text><rect fill="#F1F1F1" height="14.3844" rx="5" ry="5" style="stroke:#181818;stroke-width:0.2;" width="46.4" x="307.3332" y="480.6816"/><text fill="#000000" font-family="sans-serif" font-size="4.8" lengthAdjust="spacing" textLength="38.4" x="311.3332" y="489.8613">&#36880;&#21345;&#26174;&#31034;&#24471;&#20998;&#21152;&#25104;</text><rect fill="#F1F1F1" height="14.3844" rx="5" ry="5" style="stroke:#181818;stroke-width:0.2;" width="32" x="314.5332" y="509.066"/><text fill="#000000" font-family="sans-serif" font-size="4.8" lengthAdjust="spacing" textLength="24" x="318.5332" y="518.2457">&#35745;&#31639;&#24635;&#24471;&#20998;</text><rect fill="#F1F1F1" height="14.3844" rx="5" ry="5" style="stroke:#181818;stroke-width:0.2;" width="36.8" x="312.1332" y="531.4504"/><text fill="#000000" font-family="sans-serif" font-size="4.8" lengthAdjust="spacing" textLength="28.8" x="316.1332" y="540.6301">&#26356;&#26032;&#32047;&#35745;&#20998;&#25968;</text><rect fill="#F1F1F1" height="14.3844" rx="5" ry="5" style="stroke:#181818;stroke-width:0.2;" width="46.4" x="270.9332" y="643.3879"/><text fill="#000000" font-family="sans-serif" font-size="4.8" lengthAdjust="spacing" textLength="38.4" x="274.9332" y="652.5676">&#26816;&#26597;&#30446;&#26631;&#20998;&#25968;&#36798;&#25104;</text><rect fill="#F1F1F1" height="14.3844" rx="5" ry="5" style="stroke:#181818;stroke-width:0.2;" width="36.8" x="275.7332" y="665.7723"/><text fill="#000000" font-family="sans-serif" font-size="4.8" lengthAdjust="spacing" textLength="28.8" x="279.7332" y="674.952">&#35745;&#31639;&#37329;&#24065;&#22870;&#21169;</text><line style="stroke:#00008B;stroke-width:0.6;" x1="268.5332" x2="268.5332" y1="5.207" y2="920.8004"/><rect fill="#FFFFE0" height="915.5934" style="stroke:#FFFFE0;stroke-width:0.4;" width="55.2" x="355.3332" y="5.207"/><rect fill="#F1F1F1" height="14.3844" rx="5" ry="5" style="stroke:#181818;stroke-width:0.2;" width="41.6" x="362.5332" y="710.541"/><text fill="#000000" font-family="sans-serif" font-size="4.8" lengthAdjust="spacing" textLength="33.6" x="366.5332" y="719.7207">&#26174;&#31034;&#21487;&#36141;&#20080;&#21345;&#29260;</text><rect fill="#F1F1F1" height="14.3844" rx="5" ry="5" style="stroke:#181818;stroke-width:0.2;" width="51.2" x="357.7332" y="732.9254"/><text fill="#000000" font-family="sans-serif" font-size="4.8" lengthAdjust="spacing" textLength="43.2" x="361.7332" y="742.1051">&#26174;&#31034;&#28921;&#39274;&#21345;&#21319;&#32423;&#36873;&#39033;</text><rect fill="#F1F1F1" height="14.3844" rx="5" ry="5" style="stroke:#181818;stroke-width:0.2;" width="36.8" x="364.9332" y="822.4629"/><text fill="#000000" font-family="sans-serif" font-size="4.8" lengthAdjust="spacing" textLength="28.8" x="368.9332" y="831.6426">&#25187;&#38500;&#30456;&#24212;&#37329;&#24065;</text><rect fill="#F1F1F1" height="14.3844" rx="5" ry="5" style="stroke:#181818;stroke-width:0.2;" width="36.8" x="364.9332" y="844.8473"/><text fill="#000000" font-family="sans-serif" font-size="4.8" lengthAdjust="spacing" textLength="28.8" x="368.9332" y="854.027">&#24212;&#29992;&#36141;&#20080;&#25928;&#26524;</text><rect fill="#F1F1F1" height="14.3844" rx="5" ry="5" style="stroke:#181818;stroke-width:0.2;" width="36.8" x="364.9332" y="867.2316"/><text fill="#000000" font-family="sans-serif" font-size="4.8" lengthAdjust="spacing" textLength="28.8" x="368.9332" y="876.4113">&#26356;&#26032;&#29609;&#23478;&#21345;&#32452;</text><line style="stroke:#00008B;stroke-width:0.6;" x1="355.3332" x2="355.3332" y1="5.207" y2="920.8004"/><line style="stroke:#00008B;stroke-width:0.6;" x1="410.5332" x2="410.5332" y1="5.207" y2="920.8004"/><line style="stroke:#181818;stroke-width:0.4;" x1="89.2" x2="89.2" y1="24.7836" y2="32.7836"/><polygon fill="#181818" points="87.6,28.7836,89.2,32.7836,90.8,28.7836,89.2,30.3836" style="stroke:#181818;stroke-width:0.4;"/><line style="stroke:#181818;stroke-width:0.4;" x1="89.2" x2="89.2" y1="47.168" y2="55.168"/><polygon fill="#181818" points="87.6,51.168,89.2,55.168,90.8,51.168,89.2,52.768" style="stroke:#181818;stroke-width:0.4;"/><line style="stroke:#181818;stroke-width:0.4;" x1="89.2" x2="89.2" y1="182.0379" y2="190.0379"/><polygon fill="#181818" points="87.6,186.0379,89.2,190.0379,90.8,186.0379,89.2,187.6379" style="stroke:#181818;stroke-width:0.4;"/><line style="stroke:#181818;stroke-width:0.4;" x1="89.2" x2="89.2" y1="204.4223" y2="212.4223"/><polygon fill="#181818" points="87.6,208.4223,89.2,212.4223,90.8,208.4223,89.2,210.0223" style="stroke:#181818;stroke-width:0.4;"/><line style="stroke:#181818;stroke-width:0.4;" x1="37.9765" x2="20.8" y1="400.3285" y2="400.3285"/><polygon fill="#181818" points="19.2,446.8313,20.8,450.8313,22.4,446.8313,20.8,448.4313" style="stroke:#181818;stroke-width:0.4;"/><line style="stroke:#181818;stroke-width:0.4;" x1="20.8" x2="20.8" y1="400.3285" y2="501.334"/><line style="stroke:#181818;stroke-width:0.4;" x1="20.8" x2="48" y1="501.334" y2="501.334"/><polygon fill="#181818" points="44,499.734,48,501.334,44,502.934,45.6,501.334" style="stroke:#181818;stroke-width:0.4;"/><line style="stroke:#181818;stroke-width:0.4;" x1="74.3765" x2="52.8" y1="382.7285" y2="382.7285"/><line style="stroke:#181818;stroke-width:0.4;" x1="52.8" x2="52.8" y1="382.7285" y2="395.5285"/><polygon fill="#181818" points="51.2,391.5285,52.8,395.5285,54.4,391.5285,52.8,393.1285" style="stroke:#181818;stroke-width:0.4;"/><line style="stroke:#181818;stroke-width:0.4;" x1="52.8" x2="52.8" y1="506.134" y2="621.7879"/><line style="stroke:#181818;stroke-width:0.4;" x1="52.8" x2="84.4" y1="621.7879" y2="621.7879"/><polygon fill="#181818" points="80.4,620.1879,84.4,621.7879,80.4,623.3879,82,621.7879" style="stroke:#181818;stroke-width:0.4;"/><line style="stroke:#181818;stroke-width:0.4;" x1="89.2" x2="89.2" y1="154.3055" y2="167.6535"/><polygon fill="#181818" points="87.6,163.6535,89.2,167.6535,90.8,163.6535,89.2,165.2535" style="stroke:#181818;stroke-width:0.4;"/><line style="stroke:#181818;stroke-width:0.4;" x1="89.2" x2="89.2" y1="626.5879" y2="630.5879"/><line style="stroke:#181818;stroke-width:0.4;" x1="89.2" x2="128.1332" y1="630.5879" y2="630.5879"/><polygon fill="#181818" points="126.5332,381.3945,128.1332,377.3945,129.7332,381.3945,128.1332,379.7945" style="stroke:#181818;stroke-width:0.4;"/><line style="stroke:#181818;stroke-width:0.4;" x1="128.1332" x2="128.1332" y1="149.5055" y2="630.5879"/><line style="stroke:#181818;stroke-width:0.4;" x1="128.1332" x2="106.2235" y1="149.5055" y2="149.5055"/><polygon fill="#181818" points="110.2235,147.9055,106.2235,149.5055,110.2235,151.1055,108.6235,149.5055" style="stroke:#181818;stroke-width:0.4;"/><line style="stroke:#181818;stroke-width:0.4;" x1="72.1765" x2="13.6" y1="149.5055" y2="149.5055"/><polygon fill="#181818" points="12,379.2945,13.6,383.2945,15.2,379.2945,13.6,380.8945" style="stroke:#181818;stroke-width:0.4;"/><line style="stroke:#181818;stroke-width:0.4;" x1="13.6" x2="13.6" y1="149.5055" y2="637.3879"/><line style="stroke:#181818;stroke-width:0.4;" x1="13.6" x2="294.1332" y1="637.3879" y2="637.3879"/><line style="stroke:#181818;stroke-width:0.4;" x1="294.1332" x2="294.1332" y1="637.3879" y2="643.3879"/><polygon fill="#181818" points="292.5332,639.3879,294.1332,643.3879,295.7332,639.3879,294.1332,640.9879" style="stroke:#181818;stroke-width:0.4;"/><line style="stroke:#181818;stroke-width:0.4;" x1="89.2" x2="89.2" y1="769.6941" y2="777.6941"/><polygon fill="#181818" points="87.6,773.6941,89.2,777.6941,90.8,773.6941,89.2,775.2941" style="stroke:#181818;stroke-width:0.4;"/><line style="stroke:#181818;stroke-width:0.4;" x1="89.2" x2="89.2" y1="792.0785" y2="800.0785"/><polygon fill="#181818" points="87.6,796.0785,89.2,800.0785,90.8,796.0785,89.2,797.6785" style="stroke:#181818;stroke-width:0.4;"/><line style="stroke:#181818;stroke-width:0.4;" x1="89.2" x2="89.2" y1="904.0004" y2="912.0004"/><polygon fill="#181818" points="87.6,908.0004,89.2,912.0004,90.8,908.0004,89.2,909.6004" style="stroke:#181818;stroke-width:0.4;"/><line style="stroke:#181818;stroke-width:0.4;" x1="202.5332" x2="202.5332" y1="91.9367" y2="99.9367"/><polygon fill="#181818" points="200.9332,95.9367,202.5332,99.9367,204.1332,95.9367,202.5332,97.5367" style="stroke:#181818;stroke-width:0.4;"/><line style="stroke:#181818;stroke-width:0.4;" x1="202.5332" x2="202.5332" y1="114.3211" y2="122.3211"/><polygon fill="#181818" points="200.9332,118.3211,202.5332,122.3211,204.1332,118.3211,202.5332,119.9211" style="stroke:#181818;stroke-width:0.4;"/><line style="stroke:#181818;stroke-width:0.4;" x1="228.5332" x2="228.5332" y1="266.791" y2="274.791"/><polygon fill="#181818" points="226.9332,270.791,228.5332,274.791,230.1332,270.791,228.5332,272.391" style="stroke:#181818;stroke-width:0.4;"/><line style="stroke:#181818;stroke-width:0.4;" x1="228.5332" x2="228.5332" y1="289.1754" y2="297.1754"/><polygon fill="#181818" points="226.9332,293.1754,228.5332,297.1754,230.1332,293.1754,228.5332,294.7754" style="stroke:#181818;stroke-width:0.4;"/><line style="stroke:#181818;stroke-width:0.4;" x1="183.3097" x2="176.5332" y1="239.6066" y2="239.6066"/><line style="stroke:#181818;stroke-width:0.4;" x1="176.5332" x2="176.5332" y1="239.6066" y2="252.4066"/><polygon fill="#181818" points="174.9332,248.4066,176.5332,252.4066,178.1332,248.4066,176.5332,250.0066" style="stroke:#181818;stroke-width:0.4;"/><line style="stroke:#181818;stroke-width:0.4;" x1="221.7567" x2="228.5332" y1="239.6066" y2="239.6066"/><line style="stroke:#181818;stroke-width:0.4;" x1="228.5332" x2="228.5332" y1="239.6066" y2="252.4066"/><polygon fill="#181818" points="226.9332,248.4066,228.5332,252.4066,230.1332,248.4066,228.5332,250.0066" style="stroke:#181818;stroke-width:0.4;"/><line style="stroke:#181818;stroke-width:0.4;" x1="176.5332" x2="176.5332" y1="266.791" y2="365.1285"/><line style="stroke:#181818;stroke-width:0.4;" x1="176.5332" x2="197.7332" y1="365.1285" y2="365.1285"/><polygon fill="#181818" points="193.7332,363.5285,197.7332,365.1285,193.7332,366.7285,195.3332,365.1285" style="stroke:#181818;stroke-width:0.4;"/><line style="stroke:#181818;stroke-width:0.4;" x1="166.1332" x2="166.1332" y1="429.6391" y2="443.6391"/><polygon fill="#181818" points="164.5332,439.6391,166.1332,443.6391,167.7332,439.6391,166.1332,441.2391" style="stroke:#181818;stroke-width:0.4;"/><line style="stroke:#181818;stroke-width:0.4;" x1="166.1332" x2="166.1332" y1="458.0234" y2="472.0234"/><polygon fill="#181818" points="164.5332,468.0234,166.1332,472.0234,167.7332,468.0234,166.1332,469.6234" style="stroke:#181818;stroke-width:0.4;"/><line style="stroke:#181818;stroke-width:0.4;" x1="238.9332" x2="238.9332" y1="409.9129" y2="423.9129"/><polygon fill="#181818" points="237.3332,419.9129,238.9332,423.9129,240.5332,419.9129,238.9332,421.5129" style="stroke:#181818;stroke-width:0.4;"/><line style="stroke:#181818;stroke-width:0.4;" x1="238.9332" x2="238.9332" y1="568.2191" y2="576.2191"/><polygon fill="#181818" points="237.3332,572.2191,238.9332,576.2191,240.5332,572.2191,238.9332,573.8191" style="stroke:#181818;stroke-width:0.4;"/><line style="stroke:#181818;stroke-width:0.4;" x1="238.9332" x2="238.9332" y1="590.6035" y2="598.6035"/><polygon fill="#181818" points="237.3332,594.6035,238.9332,598.6035,240.5332,594.6035,238.9332,596.2035" style="stroke:#181818;stroke-width:0.4;"/><line style="stroke:#181818;stroke-width:0.4;" x1="320.1332" x2="320.1332" y1="333.9441" y2="341.9441"/><polygon fill="#181818" points="318.5332,337.9441,320.1332,341.9441,321.7332,337.9441,320.1332,339.5441" style="stroke:#181818;stroke-width:0.4;"/><line style="stroke:#181818;stroke-width:0.4;" x1="330.5332" x2="330.5332" y1="466.6816" y2="480.6816"/><polygon fill="#181818" points="328.9332,476.6816,330.5332,480.6816,332.1332,476.6816,330.5332,478.2816" style="stroke:#181818;stroke-width:0.4;"/><line style="stroke:#181818;stroke-width:0.4;" x1="330.5332" x2="330.5332" y1="495.066" y2="509.066"/><polygon fill="#181818" points="328.9332,505.066,330.5332,509.066,332.1332,505.066,330.5332,506.666" style="stroke:#181818;stroke-width:0.4;"/><line style="stroke:#181818;stroke-width:0.4;" x1="330.5332" x2="330.5332" y1="523.4504" y2="531.4504"/><polygon fill="#181818" points="328.9332,527.4504,330.5332,531.4504,332.1332,527.4504,330.5332,529.0504" style="stroke:#181818;stroke-width:0.4;"/><line style="stroke:#181818;stroke-width:0.4;" x1="294.1332" x2="294.1332" y1="657.7723" y2="665.7723"/><polygon fill="#181818" points="292.5332,661.7723,294.1332,665.7723,295.7332,661.7723,294.1332,663.3723" style="stroke:#181818;stroke-width:0.4;"/><line style="stroke:#181818;stroke-width:0.4;" x1="383.3332" x2="383.3332" y1="724.9254" y2="732.9254"/><polygon fill="#181818" points="381.7332,728.9254,383.3332,732.9254,384.9332,728.9254,383.3332,730.5254" style="stroke:#181818;stroke-width:0.4;"/><line style="stroke:#181818;stroke-width:0.4;" x1="383.3332" x2="383.3332" y1="836.8473" y2="844.8473"/><polygon fill="#181818" points="381.7332,840.8473,383.3332,844.8473,384.9332,840.8473,383.3332,842.4473" style="stroke:#181818;stroke-width:0.4;"/><line style="stroke:#181818;stroke-width:0.4;" x1="383.3332" x2="383.3332" y1="859.2316" y2="867.2316"/><polygon fill="#181818" points="381.7332,863.2316,383.3332,867.2316,384.9332,863.2316,383.3332,864.8316" style="stroke:#181818;stroke-width:0.4;"/><line style="stroke:#181818;stroke-width:0.4;" x1="89.2" x2="89.2" y1="69.5523" y2="71.5523"/><line style="stroke:#181818;stroke-width:0.4;" x1="89.2" x2="202.5332" y1="71.5523" y2="71.5523"/><line style="stroke:#181818;stroke-width:0.4;" x1="202.5332" x2="202.5332" y1="71.5523" y2="77.5523"/><polygon fill="#181818" points="200.9332,73.5523,202.5332,77.5523,204.1332,73.5523,202.5332,75.1523" style="stroke:#181818;stroke-width:0.4;"/><line style="stroke:#181818;stroke-width:0.4;" x1="228.5332" x2="228.5332" y1="311.5598" y2="313.5598"/><line style="stroke:#181818;stroke-width:0.4;" x1="228.5332" x2="320.1332" y1="313.5598" y2="313.5598"/><line style="stroke:#181818;stroke-width:0.4;" x1="320.1332" x2="320.1332" y1="313.5598" y2="319.5598"/><polygon fill="#181818" points="318.5332,315.5598,320.1332,319.5598,321.7332,315.5598,320.1332,317.1598" style="stroke:#181818;stroke-width:0.4;"/><line style="stroke:#181818;stroke-width:0.4;" x1="320.1332" x2="320.1332" y1="356.3285" y2="365.1285"/><line style="stroke:#181818;stroke-width:0.4;" x1="320.1332" x2="207.3332" y1="365.1285" y2="365.1285"/><polygon fill="#181818" points="211.3332,363.5285,207.3332,365.1285,211.3332,366.7285,209.7332,365.1285" style="stroke:#181818;stroke-width:0.4;"/><line style="stroke:#181818;stroke-width:0.4;" x1="89.2" x2="89.2" y1="226.8066" y2="228.8066"/><line style="stroke:#181818;stroke-width:0.4;" x1="89.2" x2="202.5332" y1="228.8066" y2="228.8066"/><line style="stroke:#181818;stroke-width:0.4;" x1="202.5332" x2="202.5332" y1="228.8066" y2="234.8066"/><polygon fill="#181818" points="200.9332,230.8066,202.5332,234.8066,204.1332,230.8066,202.5332,232.4066" style="stroke:#181818;stroke-width:0.4;"/><line style="stroke:#181818;stroke-width:0.4;" x1="52.8" x2="52.8" y1="405.1285" y2="410.1916"/><line style="stroke:#181818;stroke-width:0.4;" x1="52.8" x2="166.1332" y1="410.1916" y2="410.1916"/><line style="stroke:#181818;stroke-width:0.4;" x1="166.1332" x2="166.1332" y1="410.1916" y2="415.2547"/><polygon fill="#181818" points="164.5332,411.2547,166.1332,415.2547,167.7332,411.2547,166.1332,412.8547" style="stroke:#181818;stroke-width:0.4;"/><line style="stroke:#181818;stroke-width:0.4;" x1="166.1332" x2="166.1332" y1="486.4078" y2="491.4709"/><line style="stroke:#181818;stroke-width:0.4;" x1="166.1332" x2="52.8" y1="491.4709" y2="491.4709"/><line style="stroke:#181818;stroke-width:0.4;" x1="52.8" x2="52.8" y1="491.4709" y2="496.534"/><polygon fill="#181818" points="51.2,492.534,52.8,496.534,54.4,492.534,52.8,494.134" style="stroke:#181818;stroke-width:0.4;"/><line style="stroke:#181818;stroke-width:0.4;" x1="238.9332" x2="238.9332" y1="438.2973" y2="445.2973"/><line style="stroke:#181818;stroke-width:0.4;" x1="238.9332" x2="330.5332" y1="445.2973" y2="445.2973"/><line style="stroke:#181818;stroke-width:0.4;" x1="330.5332" x2="330.5332" y1="445.2973" y2="452.2973"/><polygon fill="#181818" points="328.9332,448.2973,330.5332,452.2973,332.1332,448.2973,330.5332,449.8973" style="stroke:#181818;stroke-width:0.4;"/><line style="stroke:#181818;stroke-width:0.4;" x1="330.5332" x2="330.5332" y1="545.8348" y2="547.8348"/><line style="stroke:#181818;stroke-width:0.4;" x1="330.5332" x2="238.9332" y1="547.8348" y2="547.8348"/><line style="stroke:#181818;stroke-width:0.4;" x1="238.9332" x2="238.9332" y1="547.8348" y2="553.8348"/><polygon fill="#181818" points="237.3332,549.8348,238.9332,553.8348,240.5332,549.8348,238.9332,551.4348" style="stroke:#181818;stroke-width:0.4;"/><line style="stroke:#181818;stroke-width:0.4;" x1="104.0235" x2="238.9332" y1="382.7285" y2="382.7285"/><line style="stroke:#181818;stroke-width:0.4;" x1="238.9332" x2="238.9332" y1="382.7285" y2="395.5285"/><polygon fill="#181818" points="237.3332,391.5285,238.9332,395.5285,240.5332,391.5285,238.9332,393.1285" style="stroke:#181818;stroke-width:0.4;"/><line style="stroke:#181818;stroke-width:0.4;" x1="238.9332" x2="238.9332" y1="612.9879" y2="621.7879"/><line style="stroke:#181818;stroke-width:0.4;" x1="238.9332" x2="94" y1="621.7879" y2="621.7879"/><polygon fill="#181818" points="98,620.1879,94,621.7879,98,623.3879,96.4,621.7879" style="stroke:#181818;stroke-width:0.4;"/><line style="stroke:#181818;stroke-width:0.4;" x1="202.5332" x2="202.5332" y1="369.9285" y2="371.9285"/><line style="stroke:#181818;stroke-width:0.4;" x1="202.5332" x2="89.2" y1="371.9285" y2="371.9285"/><line style="stroke:#181818;stroke-width:0.4;" x1="89.2" x2="89.2" y1="371.9285" y2="377.9285"/><polygon fill="#181818" points="87.6,373.9285,89.2,377.9285,90.8,373.9285,89.2,375.5285" style="stroke:#181818;stroke-width:0.4;"/><line style="stroke:#181818;stroke-width:0.4;" x1="202.5332" x2="202.5332" y1="136.7055" y2="138.7055"/><line style="stroke:#181818;stroke-width:0.4;" x1="202.5332" x2="89.2" y1="138.7055" y2="138.7055"/><line style="stroke:#181818;stroke-width:0.4;" x1="89.2" x2="89.2" y1="138.7055" y2="144.7055"/><polygon fill="#181818" points="87.6,140.7055,89.2,144.7055,90.8,140.7055,89.2,142.3055" style="stroke:#181818;stroke-width:0.4;"/><line style="stroke:#181818;stroke-width:0.4;" x1="294.1332" x2="294.1332" y1="680.1566" y2="682.1566"/><line style="stroke:#181818;stroke-width:0.4;" x1="294.1332" x2="89.2" y1="682.1566" y2="682.1566"/><line style="stroke:#181818;stroke-width:0.4;" x1="89.2" x2="89.2" y1="682.1566" y2="688.1566"/><polygon fill="#181818" points="87.6,684.1566,89.2,688.1566,90.8,684.1566,89.2,685.7566" style="stroke:#181818;stroke-width:0.4;"/><line style="stroke:#181818;stroke-width:0.4;" x1="89.2" x2="89.2" y1="702.541" y2="704.541"/><line style="stroke:#181818;stroke-width:0.4;" x1="89.2" x2="383.3332" y1="704.541" y2="704.541"/><line style="stroke:#181818;stroke-width:0.4;" x1="383.3332" x2="383.3332" y1="704.541" y2="710.541"/><polygon fill="#181818" points="381.7332,706.541,383.3332,710.541,384.9332,706.541,383.3332,708.141" style="stroke:#181818;stroke-width:0.4;"/><line style="stroke:#181818;stroke-width:0.4;" x1="383.3332" x2="383.3332" y1="747.3098" y2="749.3098"/><line style="stroke:#181818;stroke-width:0.4;" x1="383.3332" x2="89.2" y1="749.3098" y2="749.3098"/><line style="stroke:#181818;stroke-width:0.4;" x1="89.2" x2="89.2" y1="749.3098" y2="755.3098"/><polygon fill="#181818" points="87.6,751.3098,89.2,755.3098,90.8,751.3098,89.2,752.9098" style="stroke:#181818;stroke-width:0.4;"/><line style="stroke:#181818;stroke-width:0.4;" x1="89.2" x2="89.2" y1="814.4629" y2="816.4629"/><line style="stroke:#181818;stroke-width:0.4;" x1="89.2" x2="383.3332" y1="816.4629" y2="816.4629"/><line style="stroke:#181818;stroke-width:0.4;" x1="383.3332" x2="383.3332" y1="816.4629" y2="822.4629"/><polygon fill="#181818" points="381.7332,818.4629,383.3332,822.4629,384.9332,818.4629,383.3332,820.0629" style="stroke:#181818;stroke-width:0.4;"/><line style="stroke:#181818;stroke-width:0.4;" x1="383.3332" x2="383.3332" y1="881.616" y2="883.616"/><line style="stroke:#181818;stroke-width:0.4;" x1="383.3332" x2="89.2" y1="883.616" y2="883.616"/><line style="stroke:#181818;stroke-width:0.4;" x1="89.2" x2="89.2" y1="883.616" y2="889.616"/><polygon fill="#181818" points="87.6,885.616,89.2,889.616,90.8,885.616,89.2,887.216" style="stroke:#181818;stroke-width:0.4;"/><text fill="#000000" font-family="sans-serif" font-size="7.2" lengthAdjust="spacing" textLength="14.4" x="63.6666" y="12.9766">&#29609;&#23478;</text><text fill="#000000" font-family="sans-serif" font-size="7.2" lengthAdjust="spacing" textLength="28.8" x="187.7332" y="12.9766">&#21345;&#29260;&#31995;&#32479;</text><text fill="#000000" font-family="sans-serif" font-size="7.2" lengthAdjust="spacing" textLength="28.8" x="297.5332" y="12.9766">&#24471;&#20998;&#31995;&#32479;</text><text fill="#000000" font-family="sans-serif" font-size="7.2" lengthAdjust="spacing" textLength="28.8" x="368.5332" y="12.9766">&#21830;&#24215;&#31995;&#32479;</text><!--SRC=[XLLBJnfH5DxpAoRfHfTDsWqicjYctNJHfAikQHrr8Wu6CAOjJSRwO7W9LXvLK42Xg8c0yL44qJ_3kNVcN_JUUsQ6GMrB267EuxlVTywvPyBpYhhe3_aNfF2oiX3mgxBqrIEnpvJ_q_niABYaJhyC1e8XwQqoEnUP2Yp9w0s6fkKGUbxvG_EEutLGZRnNliZIqsUZvyZdW2nz30QcFTyydkWJ1ofADu-XTHMrRMz2ign68LsZyHGzxzD-nN6zKzJvADmMGT-uv_aW1mB1vIZaDw1Nj7qU1peSyOSY7Y_fTecUWHiDcaaVUwmqQ3bf7bR8NXRFyx6SyPEzeE-nQ4WLHd7zDP_BJbUlpSR9o9vjG-88WutO2ViF-czIwFXST9Rd55QB2QHZt9MCMchOFNqnAIbXQGBF9zlfuQ0yoShdP4cIrsX-XtO58n2M9gw8jkBZJf8iaEJ0wAoI_0M630TfEcW9fwd5IVBOhPNHXQm-GSeQr7UVmqrrab5anuthboHbnkQ467WY8nkParKcebWbUHrTdEv30COiawNrdaKXjsEqsvoJ70ZB4WCen_yBO9waZFQAcpSzwyD-qYUyqClHt97J1qXKYPvbc6I_Z056gqPRHQZqQ4t3yO4VAT3IT3CcD4ltXafm_ddBEH-iMSaY0E58wO9Ltah9fyoz0mmMejHfPSOptZPUGTJ72Z7irPtQ3Rjfj0ZTxXHt4joiCjbE4ZvYncF5uWnfiy-7K8kpiRAdfOE9a18yHHYKzadkYji7BRgxPjy1soi6ZC_Oxjhu9U5kqJsku1uVjmOiXXthalf8Yn-dZCsoABFn_mMPBJHYMyZb2ZrA_hs9yIQxMnPAueZc-j3BW5v4E5FZYh1tTWmV7VVG4At_iFNqeisyp4Zo7Vli1uAmkCF17PjDuousNjz_5zUUCDm4Wj_edjj5TIhD36AXyDqrLW4lETJuZYkrI3M6R8tRMo7GKcV6jg2x0eq29CxS2yhBbXAiDwnrAaPShCQnzMfT4SYqZOlJuNN75c3PH_Sn7QEz9kkiMRiUEuHSPeocZg3yTvlfinOL8ZeGZjsQ387u6AFueRbJfwKkMmceZMzaiHuGqTuATYC55NjtkwZXEsBOPLyDriy51VOM2Ivw_W00]--></g></svg>