<svg xmlns="http://www.w3.org/2000/svg" xmlns:xlink="http://www.w3.org/1999/xlink" contentStyleType="text/css" data-diagram-type="ACTIVITY" height="1233.6px" preserveAspectRatio="none" style="width:484px;height:1233px;background:#FFFFFF;" version="1.1" viewBox="0 0 484 1233" width="484px" zoomAndPan="magnify"><defs/><g><rect fill="none" height="19.1531" style="stroke:none;stroke-width:0.8;" width="458.0004" x="12" y="10.4141"/><rect fill="#ADD8E6" height="1214.0969" style="stroke:#ADD8E6;stroke-width:0.8;" width="180.8" x="12" y="10.4141"/><ellipse cx="100.8" cy="41.5672" fill="#222222" rx="8" ry="8" style="stroke:#222222;stroke-width:0.8;"/><rect fill="#F1F1F1" height="28.7688" rx="10" ry="10" style="stroke:#181818;stroke-width:0.4;" width="54.4" x="73.6" y="65.5672"/><text fill="#000000" font-family="sans-serif" font-size="9.6" lengthAdjust="spacing" textLength="38.4" x="81.6" y="83.9266">&#21551;&#21160;&#28216;&#25103;</text><rect fill="#F1F1F1" height="28.7688" rx="10" ry="10" style="stroke:#181818;stroke-width:0.4;" width="73.6" x="64" y="110.3359"/><text fill="#000000" font-family="sans-serif" font-size="9.6" lengthAdjust="spacing" textLength="57.6" x="72" y="128.6953">&#25353;&#20219;&#24847;&#38190;&#32487;&#32493;</text><polygon fill="#F1F1F1" points="87.6,199.8734,114,199.8734,123.6,209.4734,114,219.0734,87.6,219.0734,78,209.4734,87.6,199.8734" style="stroke:#181818;stroke-width:0.4;"/><text fill="#000000" font-family="sans-serif" font-size="8.8" lengthAdjust="spacing" textLength="26.4" x="87.6" y="213.1172">&#26032;&#28216;&#25103;</text><text fill="#000000" font-family="sans-serif" font-size="8.8" lengthAdjust="spacing" textLength="8.8" x="69.2" y="207.2648">&#26159;</text><text fill="#000000" font-family="sans-serif" font-size="8.8" lengthAdjust="spacing" textLength="8.8" x="123.6" y="207.2648">&#21542;</text><rect fill="#F1F1F1" height="28.7688" rx="10" ry="10" style="stroke:#181818;stroke-width:0.4;" width="64" x="28.8" y="279.8422"/><text fill="#000000" font-family="sans-serif" font-size="9.6" lengthAdjust="spacing" textLength="48" x="36.8" y="298.2016">&#36873;&#25321;&#23384;&#26723;&#20301;</text><rect fill="#F1F1F1" height="28.7688" rx="10" ry="10" style="stroke:#181818;stroke-width:0.4;" width="54.4" x="33.6" y="369.3797"/><text fill="#000000" font-family="sans-serif" font-size="9.6" lengthAdjust="spacing" textLength="38.4" x="41.6" y="387.7391">&#36873;&#25321;&#31456;&#33410;</text><polygon fill="#F1F1F1" points="100.8,406.1484,110.4,415.7484,100.8,425.3484,91.2,415.7484,100.8,406.1484" style="stroke:#181818;stroke-width:0.4;"/><rect fill="#F1F1F1" height="28.7688" rx="10" ry="10" style="stroke:#181818;stroke-width:0.4;" width="73.6" x="64" y="566.0859"/><text fill="#000000" font-family="sans-serif" font-size="9.6" lengthAdjust="spacing" textLength="57.6" x="72" y="584.4453">&#35266;&#23519;&#29983;&#20135;&#29366;&#20917;</text><rect fill="#F1F1F1" height="28.7688" rx="10" ry="10" style="stroke:#181818;stroke-width:0.4;" width="73.6" x="64" y="610.8547"/><text fill="#000000" font-family="sans-serif" font-size="9.6" lengthAdjust="spacing" textLength="57.6" x="72" y="629.2141">&#25302;&#25341;&#35843;&#25972;&#21592;&#24037;</text><rect fill="#F1F1F1" height="28.7688" rx="10" ry="10" style="stroke:#181818;stroke-width:0.4;" width="54.4" x="73.6" y="661.6234"/><text fill="#000000" font-family="sans-serif" font-size="9.6" lengthAdjust="spacing" textLength="38.4" x="81.6" y="679.9828">&#32452;&#21512;&#39135;&#26448;</text><rect fill="#F1F1F1" height="28.7688" rx="10" ry="10" style="stroke:#181818;stroke-width:0.4;" width="54.4" x="73.6" y="706.3922"/><text fill="#000000" font-family="sans-serif" font-size="9.6" lengthAdjust="spacing" textLength="38.4" x="81.6" y="724.7516">&#19978;&#33756;&#24471;&#20998;</text><polygon fill="#F1F1F1" points="100.8,530.8859,110.4,540.4859,100.8,550.0859,91.2,540.4859,100.8,530.8859" style="stroke:#181818;stroke-width:0.4;"/><polygon fill="#F1F1F1" points="78.8,751.1609,122.8,751.1609,132.4,760.7609,122.8,770.3609,78.8,770.3609,69.2,760.7609,78.8,751.1609" style="stroke:#181818;stroke-width:0.4;"/><text fill="#000000" font-family="sans-serif" font-size="8.8" lengthAdjust="spacing" textLength="44" x="78.8" y="764.4047">&#26410;&#23436;&#25104;&#30446;&#26631;</text><rect fill="#F1F1F1" height="28.7688" rx="10" ry="10" style="stroke:#181818;stroke-width:0.4;" width="54.9391" x="73.3305" y="786.3609"/><text fill="#000000" font-family="sans-serif" font-size="9.6" lengthAdjust="spacing" textLength="38.9391" x="81.3305" y="804.7203">&#25353;&#19979;ESC</text><polygon fill="#F1F1F1" points="83.2,875.8984,118.4,875.8984,128,885.4984,118.4,895.0984,83.2,895.0984,73.6,885.4984,83.2,875.8984" style="stroke:#181818;stroke-width:0.4;"/><text fill="#000000" font-family="sans-serif" font-size="8.8" lengthAdjust="spacing" textLength="35.2" x="83.2" y="889.1422">&#35843;&#25972;&#35774;&#32622;</text><text fill="#000000" font-family="sans-serif" font-size="8.8" lengthAdjust="spacing" textLength="8.8" x="64.8" y="883.2898">&#21542;</text><text fill="#000000" font-family="sans-serif" font-size="8.8" lengthAdjust="spacing" textLength="8.8" x="128" y="883.2898">&#26159;</text><rect fill="#F1F1F1" height="28.7688" rx="10" ry="10" style="stroke:#181818;stroke-width:0.4;" width="73.6" x="16.8" y="911.0984"/><text fill="#000000" font-family="sans-serif" font-size="9.6" lengthAdjust="spacing" textLength="57.6" x="24.8" y="929.4578">&#36873;&#25321;&#32487;&#32493;&#28216;&#25103;</text><rect fill="#F1F1F1" height="28.7688" rx="10" ry="10" style="stroke:#181818;stroke-width:0.4;" width="83.2" x="106.4" y="955.8672"/><text fill="#000000" font-family="sans-serif" font-size="9.6" lengthAdjust="spacing" textLength="67.2" x="114.4" y="974.2266">&#35843;&#33410;&#38899;&#37327;&#31561;&#35774;&#32622;</text><polygon fill="#F1F1F1" points="100.8,992.6359,110.4,1002.2359,100.8,1011.8359,91.2,1002.2359,100.8,992.6359" style="stroke:#181818;stroke-width:0.4;"/><rect fill="#F1F1F1" height="28.7688" rx="10" ry="10" style="stroke:#181818;stroke-width:0.4;" width="73.6" x="64" y="1117.3734"/><text fill="#000000" font-family="sans-serif" font-size="9.6" lengthAdjust="spacing" textLength="57.6" x="72" y="1135.7328">&#36141;&#20080;&#21592;&#24037;&#21345;&#29260;</text><rect fill="#F1F1F1" height="28.7688" rx="10" ry="10" style="stroke:#181818;stroke-width:0.4;" width="54.4" x="73.6" y="1162.1422"/><text fill="#000000" font-family="sans-serif" font-size="9.6" lengthAdjust="spacing" textLength="38.4" x="81.6" y="1180.5016">&#21319;&#32423;&#33021;&#21147;</text><ellipse cx="100.8" cy="1215.7109" fill="none" rx="8.8" ry="8.8" style="stroke:#222222;stroke-width:0.8;"/><ellipse cx="100.8" cy="1215.7109" fill="#222222" rx="4.8" ry="4.8" style="stroke:#222222;stroke-width:0.8;"/><line style="stroke:#00008B;stroke-width:1.2;" x1="12" x2="12" y1="10.4141" y2="1224.5109"/><rect fill="#90EE90" height="1214.0969" style="stroke:#90EE90;stroke-width:0.8;" width="168.8" x="192.8" y="10.4141"/><rect fill="#F1F1F1" height="28.7688" rx="10" ry="10" style="stroke:#181818;stroke-width:0.4;" width="64" x="242.4" y="155.1047"/><text fill="#000000" font-family="sans-serif" font-size="9.6" lengthAdjust="spacing" textLength="48" x="250.4" y="173.4641">&#26174;&#31034;&#20027;&#33756;&#21333;</text><rect fill="#F1F1F1" height="28.7688" rx="10" ry="10" style="stroke:#181818;stroke-width:0.4;" width="73.6" x="197.6" y="235.0734"/><text fill="#000000" font-family="sans-serif" font-size="9.6" lengthAdjust="spacing" textLength="57.6" x="205.6" y="253.4328">&#26174;&#31034;&#23384;&#26723;&#36873;&#25321;</text><rect fill="#F1F1F1" height="28.7688" rx="10" ry="10" style="stroke:#181818;stroke-width:0.4;" width="73.6" x="197.6" y="324.6109"/><text fill="#000000" font-family="sans-serif" font-size="9.6" lengthAdjust="spacing" textLength="57.6" x="205.6" y="342.9703">&#26174;&#31034;&#31456;&#33410;&#36873;&#25321;</text><rect fill="#F1F1F1" height="28.7688" rx="10" ry="10" style="stroke:#181818;stroke-width:0.4;" width="73.6" x="237.6" y="486.1172"/><text fill="#000000" font-family="sans-serif" font-size="9.6" lengthAdjust="spacing" textLength="57.6" x="245.6" y="504.4766">&#26174;&#31034;&#28216;&#25103;&#30028;&#38754;</text><rect fill="#F1F1F1" height="28.7688" rx="10" ry="10" style="stroke:#181818;stroke-width:0.4;" width="73.6" x="237.6" y="831.1297"/><text fill="#000000" font-family="sans-serif" font-size="9.6" lengthAdjust="spacing" textLength="57.6" x="245.6" y="849.4891">&#26174;&#31034;&#26242;&#20572;&#33756;&#21333;</text><rect fill="#F1F1F1" height="28.7688" rx="10" ry="10" style="stroke:#181818;stroke-width:0.4;" width="73.6" x="284.8" y="911.0984"/><text fill="#000000" font-family="sans-serif" font-size="9.6" lengthAdjust="spacing" textLength="57.6" x="292.8" y="929.4578">&#26174;&#31034;&#36873;&#39033;&#38754;&#26495;</text><rect fill="#F1F1F1" height="28.7688" rx="10" ry="10" style="stroke:#181818;stroke-width:0.4;" width="54.4" x="247.2" y="1072.6047"/><text fill="#000000" font-family="sans-serif" font-size="9.6" lengthAdjust="spacing" textLength="38.4" x="255.2" y="1090.9641">&#26174;&#31034;&#21830;&#24215;</text><line style="stroke:#00008B;stroke-width:1.2;" x1="192.8" x2="192.8" y1="10.4141" y2="1224.5109"/><rect fill="#FFFFE0" height="1214.0969" style="stroke:#FFFFE0;stroke-width:0.8;" width="107.2" x="361.6" y="10.4141"/><rect fill="#F1F1F1" height="28.7688" rx="10" ry="10" style="stroke:#181818;stroke-width:0.4;" width="54.4" x="411.2" y="235.0734"/><text fill="#000000" font-family="sans-serif" font-size="9.6" lengthAdjust="spacing" textLength="38.4" x="419.2" y="253.4328">&#21152;&#36733;&#23384;&#26723;</text><rect fill="#F1F1F1" height="28.7688" rx="10" ry="10" style="stroke:#181818;stroke-width:0.4;" width="64" x="366.4" y="441.3484"/><text fill="#000000" font-family="sans-serif" font-size="9.6" lengthAdjust="spacing" textLength="48" x="374.4" y="459.7078">&#21021;&#22987;&#21270;&#28216;&#25103;</text><rect fill="#F1F1F1" height="28.7688" rx="10" ry="10" style="stroke:#181818;stroke-width:0.4;" width="54.4" x="371.2" y="1027.8359"/><text fill="#000000" font-family="sans-serif" font-size="9.6" lengthAdjust="spacing" textLength="38.4" x="379.2" y="1046.1953">&#20851;&#21345;&#32467;&#31639;</text><line style="stroke:#00008B;stroke-width:1.2;" x1="361.6" x2="361.6" y1="10.4141" y2="1224.5109"/><line style="stroke:#00008B;stroke-width:1.2;" x1="468.8" x2="468.8" y1="10.4141" y2="1224.5109"/><line style="stroke:#181818;stroke-width:0.8;" x1="100.8" x2="100.8" y1="49.5672" y2="65.5672"/><polygon fill="#181818" points="97.6,57.5672,100.8,65.5672,104,57.5672,100.8,60.7672" style="stroke:#181818;stroke-width:0.8;"/><line style="stroke:#181818;stroke-width:0.8;" x1="100.8" x2="100.8" y1="94.3359" y2="110.3359"/><polygon fill="#181818" points="97.6,102.3359,100.8,110.3359,104,102.3359,100.8,105.5359" style="stroke:#181818;stroke-width:0.8;"/><line style="stroke:#181818;stroke-width:0.8;" x1="60.8" x2="60.8" y1="398.1484" y2="415.7484"/><line style="stroke:#181818;stroke-width:0.8;" x1="60.8" x2="91.2" y1="415.7484" y2="415.7484"/><polygon fill="#181818" points="83.2,412.5484,91.2,415.7484,83.2,418.9484,86.4,415.7484" style="stroke:#181818;stroke-width:0.8;"/><line style="stroke:#181818;stroke-width:0.8;" x1="100.8" x2="100.8" y1="594.8547" y2="610.8547"/><polygon fill="#181818" points="97.6,602.8547,100.8,610.8547,104,602.8547,100.8,606.0547" style="stroke:#181818;stroke-width:0.8;"/><line style="stroke:#181818;stroke-width:0.8;" x1="100.8" x2="100.8" y1="639.6234" y2="661.6234"/><polygon fill="#181818" points="97.6,653.6234,100.8,661.6234,104,653.6234,100.8,656.8234" style="stroke:#181818;stroke-width:0.8;"/><line style="stroke:#181818;stroke-width:0.8;" x1="100.8" x2="100.8" y1="690.3922" y2="706.3922"/><polygon fill="#181818" points="97.6,698.3922,100.8,706.3922,104,698.3922,100.8,701.5922" style="stroke:#181818;stroke-width:0.8;"/><line style="stroke:#181818;stroke-width:0.8;" x1="100.8" x2="100.8" y1="550.0859" y2="566.0859"/><polygon fill="#181818" points="97.6,558.0859,100.8,566.0859,104,558.0859,100.8,561.2859" style="stroke:#181818;stroke-width:0.8;"/><line style="stroke:#181818;stroke-width:0.8;" x1="132.4" x2="147.2" y1="760.7609" y2="760.7609"/><polygon fill="#181818" points="144,655.6234,147.2,647.6234,150.4,655.6234,147.2,652.4234" style="stroke:#181818;stroke-width:0.8;"/><line style="stroke:#181818;stroke-width:0.8;" x1="147.2" x2="147.2" y1="540.4859" y2="760.7609"/><line style="stroke:#181818;stroke-width:0.8;" x1="147.2" x2="110.4" y1="540.4859" y2="540.4859"/><polygon fill="#181818" points="118.4,537.2859,110.4,540.4859,118.4,543.6859,115.2,540.4859" style="stroke:#181818;stroke-width:0.8;"/><line style="stroke:#181818;stroke-width:0.8;" x1="100.8" x2="100.8" y1="735.1609" y2="751.1609"/><polygon fill="#181818" points="97.6,743.1609,100.8,751.1609,104,743.1609,100.8,746.3609" style="stroke:#181818;stroke-width:0.8;"/><line style="stroke:#181818;stroke-width:0.8;" x1="100.8" x2="100.8" y1="770.3609" y2="786.3609"/><polygon fill="#181818" points="97.6,778.3609,100.8,786.3609,104,778.3609,100.8,781.5609" style="stroke:#181818;stroke-width:0.8;"/><line style="stroke:#181818;stroke-width:0.8;" x1="73.6" x2="53.6" y1="885.4984" y2="885.4984"/><line style="stroke:#181818;stroke-width:0.8;" x1="53.6" x2="53.6" y1="885.4984" y2="911.0984"/><polygon fill="#181818" points="50.4,903.0984,53.6,911.0984,56.8,903.0984,53.6,906.2984" style="stroke:#181818;stroke-width:0.8;"/><line style="stroke:#181818;stroke-width:0.8;" x1="53.6" x2="53.6" y1="939.8672" y2="1002.2359"/><line style="stroke:#181818;stroke-width:0.8;" x1="53.6" x2="91.2" y1="1002.2359" y2="1002.2359"/><polygon fill="#181818" points="83.2,999.0359,91.2,1002.2359,83.2,1005.4359,86.4,1002.2359" style="stroke:#181818;stroke-width:0.8;"/><line style="stroke:#181818;stroke-width:0.8;" x1="148" x2="148" y1="984.6359" y2="1002.2359"/><line style="stroke:#181818;stroke-width:0.8;" x1="148" x2="110.4" y1="1002.2359" y2="1002.2359"/><polygon fill="#181818" points="118.4,999.0359,110.4,1002.2359,118.4,1005.4359,115.2,1002.2359" style="stroke:#181818;stroke-width:0.8;"/><line style="stroke:#181818;stroke-width:0.8;" x1="100.8" x2="100.8" y1="1146.1422" y2="1162.1422"/><polygon fill="#181818" points="97.6,1154.1422,100.8,1162.1422,104,1154.1422,100.8,1157.3422" style="stroke:#181818;stroke-width:0.8;"/><line style="stroke:#181818;stroke-width:0.8;" x1="100.8" x2="100.8" y1="1190.9109" y2="1206.9109"/><polygon fill="#181818" points="97.6,1198.9109,100.8,1206.9109,104,1198.9109,100.8,1202.1109" style="stroke:#181818;stroke-width:0.8;"/><line style="stroke:#181818;stroke-width:0.8;" x1="100.8" x2="100.8" y1="139.1047" y2="143.1047"/><line style="stroke:#181818;stroke-width:0.8;" x1="100.8" x2="274.4" y1="143.1047" y2="143.1047"/><line style="stroke:#181818;stroke-width:0.8;" x1="274.4" x2="274.4" y1="143.1047" y2="155.1047"/><polygon fill="#181818" points="271.2,147.1047,274.4,155.1047,277.6,147.1047,274.4,150.3047" style="stroke:#181818;stroke-width:0.8;"/><line style="stroke:#181818;stroke-width:0.8;" x1="234.4" x2="234.4" y1="263.8422" y2="267.8422"/><line style="stroke:#181818;stroke-width:0.8;" x1="234.4" x2="60.8" y1="267.8422" y2="267.8422"/><line style="stroke:#181818;stroke-width:0.8;" x1="60.8" x2="60.8" y1="267.8422" y2="279.8422"/><polygon fill="#181818" points="57.6,271.8422,60.8,279.8422,64,271.8422,60.8,275.0422" style="stroke:#181818;stroke-width:0.8;"/><line style="stroke:#181818;stroke-width:0.8;" x1="60.8" x2="60.8" y1="308.6109" y2="312.6109"/><line style="stroke:#181818;stroke-width:0.8;" x1="60.8" x2="234.4" y1="312.6109" y2="312.6109"/><line style="stroke:#181818;stroke-width:0.8;" x1="234.4" x2="234.4" y1="312.6109" y2="324.6109"/><polygon fill="#181818" points="231.2,316.6109,234.4,324.6109,237.6,316.6109,234.4,319.8109" style="stroke:#181818;stroke-width:0.8;"/><line style="stroke:#181818;stroke-width:0.8;" x1="234.4" x2="234.4" y1="353.3797" y2="357.3797"/><line style="stroke:#181818;stroke-width:0.8;" x1="234.4" x2="60.8" y1="357.3797" y2="357.3797"/><line style="stroke:#181818;stroke-width:0.8;" x1="60.8" x2="60.8" y1="357.3797" y2="369.3797"/><polygon fill="#181818" points="57.6,361.3797,60.8,369.3797,64,361.3797,60.8,364.5797" style="stroke:#181818;stroke-width:0.8;"/><line style="stroke:#181818;stroke-width:0.8;" x1="78" x2="68.4" y1="209.4734" y2="209.4734"/><line style="stroke:#181818;stroke-width:0.8;" x1="68.4" x2="68.4" y1="209.4734" y2="223.8734"/><line style="stroke:#181818;stroke-width:0.8;" x1="68.4" x2="234.4" y1="223.8734" y2="223.8734"/><line style="stroke:#181818;stroke-width:0.8;" x1="234.4" x2="234.4" y1="223.8734" y2="235.0734"/><polygon fill="#181818" points="231.2,227.0734,234.4,235.0734,237.6,227.0734,234.4,230.2734" style="stroke:#181818;stroke-width:0.8;"/><line style="stroke:#181818;stroke-width:0.8;" x1="123.6" x2="438.4" y1="209.4734" y2="209.4734"/><line style="stroke:#181818;stroke-width:0.8;" x1="438.4" x2="438.4" y1="209.4734" y2="235.0734"/><polygon fill="#181818" points="435.2,227.0734,438.4,235.0734,441.6,227.0734,438.4,230.2734" style="stroke:#181818;stroke-width:0.8;"/><line style="stroke:#181818;stroke-width:0.8;" x1="438.4" x2="438.4" y1="263.8422" y2="415.7484"/><line style="stroke:#181818;stroke-width:0.8;" x1="438.4" x2="110.4" y1="415.7484" y2="415.7484"/><polygon fill="#181818" points="118.4,412.5484,110.4,415.7484,118.4,418.9484,115.2,415.7484" style="stroke:#181818;stroke-width:0.8;"/><line style="stroke:#181818;stroke-width:0.8;" x1="274.4" x2="274.4" y1="183.8734" y2="187.8734"/><line style="stroke:#181818;stroke-width:0.8;" x1="274.4" x2="100.8" y1="187.8734" y2="187.8734"/><line style="stroke:#181818;stroke-width:0.8;" x1="100.8" x2="100.8" y1="187.8734" y2="199.8734"/><polygon fill="#181818" points="97.6,191.8734,100.8,199.8734,104,191.8734,100.8,195.0734" style="stroke:#181818;stroke-width:0.8;"/><line style="stroke:#181818;stroke-width:0.8;" x1="100.8" x2="100.8" y1="425.3484" y2="429.3484"/><line style="stroke:#181818;stroke-width:0.8;" x1="100.8" x2="398.4" y1="429.3484" y2="429.3484"/><line style="stroke:#181818;stroke-width:0.8;" x1="398.4" x2="398.4" y1="429.3484" y2="441.3484"/><polygon fill="#181818" points="395.2,433.3484,398.4,441.3484,401.6,433.3484,398.4,436.5484" style="stroke:#181818;stroke-width:0.8;"/><line style="stroke:#181818;stroke-width:0.8;" x1="398.4" x2="398.4" y1="470.1172" y2="474.1172"/><line style="stroke:#181818;stroke-width:0.8;" x1="398.4" x2="274.4" y1="474.1172" y2="474.1172"/><line style="stroke:#181818;stroke-width:0.8;" x1="274.4" x2="274.4" y1="474.1172" y2="486.1172"/><polygon fill="#181818" points="271.2,478.1172,274.4,486.1172,277.6,478.1172,274.4,481.3172" style="stroke:#181818;stroke-width:0.8;"/><line style="stroke:#181818;stroke-width:0.8;" x1="274.4" x2="274.4" y1="514.8859" y2="518.8859"/><line style="stroke:#181818;stroke-width:0.8;" x1="274.4" x2="100.8" y1="518.8859" y2="518.8859"/><line style="stroke:#181818;stroke-width:0.8;" x1="100.8" x2="100.8" y1="518.8859" y2="530.8859"/><polygon fill="#181818" points="97.6,522.8859,100.8,530.8859,104,522.8859,100.8,526.0859" style="stroke:#181818;stroke-width:0.8;"/><line style="stroke:#181818;stroke-width:0.8;" x1="100.8" x2="100.8" y1="815.1297" y2="819.1297"/><line style="stroke:#181818;stroke-width:0.8;" x1="100.8" x2="274.4" y1="819.1297" y2="819.1297"/><line style="stroke:#181818;stroke-width:0.8;" x1="274.4" x2="274.4" y1="819.1297" y2="831.1297"/><polygon fill="#181818" points="271.2,823.1297,274.4,831.1297,277.6,823.1297,274.4,826.3297" style="stroke:#181818;stroke-width:0.8;"/><line style="stroke:#181818;stroke-width:0.8;" x1="321.6" x2="321.6" y1="939.8672" y2="943.8672"/><line style="stroke:#181818;stroke-width:0.8;" x1="321.6" x2="148" y1="943.8672" y2="943.8672"/><line style="stroke:#181818;stroke-width:0.8;" x1="148" x2="148" y1="943.8672" y2="955.8672"/><polygon fill="#181818" points="144.8,947.8672,148,955.8672,151.2,947.8672,148,951.0672" style="stroke:#181818;stroke-width:0.8;"/><line style="stroke:#181818;stroke-width:0.8;" x1="128" x2="321.6" y1="885.4984" y2="885.4984"/><line style="stroke:#181818;stroke-width:0.8;" x1="321.6" x2="321.6" y1="885.4984" y2="911.0984"/><polygon fill="#181818" points="318.4,903.0984,321.6,911.0984,324.8,903.0984,321.6,906.2984" style="stroke:#181818;stroke-width:0.8;"/><line style="stroke:#181818;stroke-width:0.8;" x1="274.4" x2="274.4" y1="859.8984" y2="863.8984"/><line style="stroke:#181818;stroke-width:0.8;" x1="274.4" x2="100.8" y1="863.8984" y2="863.8984"/><line style="stroke:#181818;stroke-width:0.8;" x1="100.8" x2="100.8" y1="863.8984" y2="875.8984"/><polygon fill="#181818" points="97.6,867.8984,100.8,875.8984,104,867.8984,100.8,871.0984" style="stroke:#181818;stroke-width:0.8;"/><line style="stroke:#181818;stroke-width:0.8;" x1="100.8" x2="100.8" y1="1011.8359" y2="1015.8359"/><line style="stroke:#181818;stroke-width:0.8;" x1="100.8" x2="398.4" y1="1015.8359" y2="1015.8359"/><line style="stroke:#181818;stroke-width:0.8;" x1="398.4" x2="398.4" y1="1015.8359" y2="1027.8359"/><polygon fill="#181818" points="395.2,1019.8359,398.4,1027.8359,401.6,1019.8359,398.4,1023.0359" style="stroke:#181818;stroke-width:0.8;"/><line style="stroke:#181818;stroke-width:0.8;" x1="398.4" x2="398.4" y1="1056.6047" y2="1060.6047"/><line style="stroke:#181818;stroke-width:0.8;" x1="398.4" x2="274.4" y1="1060.6047" y2="1060.6047"/><line style="stroke:#181818;stroke-width:0.8;" x1="274.4" x2="274.4" y1="1060.6047" y2="1072.6047"/><polygon fill="#181818" points="271.2,1064.6047,274.4,1072.6047,277.6,1064.6047,274.4,1067.8047" style="stroke:#181818;stroke-width:0.8;"/><line style="stroke:#181818;stroke-width:0.8;" x1="274.4" x2="274.4" y1="1101.3734" y2="1105.3734"/><line style="stroke:#181818;stroke-width:0.8;" x1="274.4" x2="100.8" y1="1105.3734" y2="1105.3734"/><line style="stroke:#181818;stroke-width:0.8;" x1="100.8" x2="100.8" y1="1105.3734" y2="1117.3734"/><polygon fill="#181818" points="97.6,1109.3734,100.8,1117.3734,104,1109.3734,100.8,1112.5734" style="stroke:#181818;stroke-width:0.8;"/><text fill="#000000" font-family="sans-serif" font-size="14.4" lengthAdjust="spacing" textLength="28.8" x="88" y="25.9531">&#29609;&#23478;</text><text fill="#000000" font-family="sans-serif" font-size="14.4" lengthAdjust="spacing" textLength="28.8" x="262.8" y="25.9531">&#30028;&#38754;</text><text fill="#000000" font-family="sans-serif" font-size="14.4" lengthAdjust="spacing" textLength="28.8" x="400.8" y="25.9531">&#31995;&#32479;</text><!--SRC=[VL9DSz9G5DtdLsJ63IoTSKLshHyRTrsvZF9QCgG94z9Xr3YZjF8HG70ibB4mW5MnEWHcg9MI2VwPtFUIV-5BNeAT5iqkvvvxxhldt7nMKdAY9kxp-OAqBuiAubzoFFssn6VPFKqzKDBRggng_6DfBwDloGU8LLKjZJHMkIzgsNNXeQheEz8BnD-zz_TVVouZ_gagfxbN76VSMKiPvDqvM9T6Z3tI458Cqgxx_Kzhy0cIPRLWaBbDx871KO6uAw-Bciwbe3K5ynjUB72bAN0fNA-wjesFclwnHUmniIT2q1E9fd1tHJultONjDNlGQ0lNzAHTFe4xCwQKvFKCKYZGdIRf9ci1deyaODB5epF_THNNpeMG4SbG1aCPmtKQmaO1ycFecSN_2J26m24vZ_W4jBwobqHEK1gOGyzns1nAKzBIRh1FH4X1fG_Z6jGxiJatRM0u0wyxeQ4S4lLWWZSkmdH0ZWVkSapCIoZz5C8DQXrSSxpP8MvVmFik_FeImiG-WbR5FnlWVYi4t8KP-BmwWKf9Y6JvGaQYzv30lUzWrN6bHKujF2mdhyqFGrpK7kniRyWEVop2czxc-DYBF6j572jESEtRBNl3wuYzOIR_CsxQue-kA8Rxls-cHQS6IGxcVhb99bKsVbCUR-VG617x0x5EReS1xH8iGpnsmRkOk5Spvc_GMAtJ-uP6cIp7tg43vYbTFw-hkJy0]--></g></svg>